<svg width="108" height="33" viewBox="0 0 108 33" fill="none" xmlns="http://www.w3.org/2000/svg">
<rect width="12.3862" height="6.22643" transform="matrix(-1 0 0.703319 0.710875 12.3861 18.0002)" fill="#E69EA5" fill-opacity="0.4"/>
<rect width="12.3862" height="9.85201" transform="matrix(-1 0 0 1 16.7537 22.4131)" fill="#E69EA5" fill-opacity="0.7"/>
<rect width="6.20788" height="9.85201" transform="matrix(-0.703319 -0.710875 0 1 4.3667 22.413)" fill="#E69EA5"/>
<rect width="12.3862" height="6.22643" transform="matrix(-1 0 0.703319 0.710875 57.3872 8)" fill="#E69EA5" fill-opacity="0.4"/>
<rect width="12.3862" height="19.704" transform="matrix(-1 0 0 1 61.7516 12.4136)" fill="#E69EA5" fill-opacity="0.7"/>
<rect width="6.20788" height="19.704" transform="matrix(-0.703319 -0.710875 0 1 49.3661 12.4136)" fill="#E69EA5"/>
<rect width="12.3862" height="6.22643" transform="matrix(-1 0 0.703319 0.710875 34.387 12)" fill="#E69EA5" fill-opacity="0.4"/>
<rect width="12.3862" height="15.7632" transform="matrix(-1 0 0 1 38.7528 16.4136)" fill="#E69EA5" fill-opacity="0.7"/>
<rect width="6.20788" height="15.7632" transform="matrix(-0.703319 -0.710875 0 1 26.3661 16.4136)" fill="#E69EA5"/>
<rect width="12.3862" height="6.22643" transform="matrix(-1 0 0.703319 0.710875 80.3871 4)" fill="#E69EA5" fill-opacity="0.4"/>
<rect width="12.3862" height="23.6448" transform="matrix(-1 0 0 1 84.7515 8.41357)" fill="#E69EA5" fill-opacity="0.7"/>
<rect width="6.20788" height="23.6448" transform="matrix(-0.703319 -0.710875 0 1 72.3661 8.41357)" fill="#E69EA5"/>
<rect width="12.3862" height="27.5856" transform="matrix(-1 0 0 1 107.752 4.41309)" fill="#E69EA5" fill-opacity="0.7"/>
<rect width="6.20788" height="27.5856" transform="matrix(-0.703319 -0.710875 0 1 95.3661 4.41309)" fill="#E69EA5"/>
<rect width="12.3862" height="6.22643" transform="matrix(-1 0 0.703319 0.710875 103.395 0.000244141)" fill="#E69EA5" fill-opacity="0.4"/>
</svg>
