<svg width="110" height="21" viewBox="0 0 110 21" fill="none" xmlns="http://www.w3.org/2000/svg">
<path d="M10.3114 10.494V1.18372C12.2775 1.18372 14.1932 1.80616 15.7839 2.96183L10.3114 10.494Z" fill="#E69EA5" stroke="white"/>
<path d="M10.311 10.494L15.7834 2.96183C19.9433 5.98418 20.8655 11.8066 17.8432 15.9665C14.8208 20.1264 8.99842 21.0486 4.83851 18.0262C0.678589 15.0039 -0.243586 9.18148 2.77877 5.02156C4.53053 2.61047 7.33069 1.18372 10.311 1.18372V10.494Z" fill="#F0C5C9" stroke="white"/>
<path d="M32.6578 10.494V1.18372C36.6913 1.18372 40.2661 3.78092 41.5125 7.61698L32.6578 10.494Z" fill="#E69EA5" stroke="white"/>
<path d="M32.6578 10.494L41.5124 7.61698C43.1014 12.5073 40.4251 17.7597 35.5348 19.3487C30.6446 20.9376 25.3921 18.2613 23.8032 13.3711C22.2142 8.48079 24.8905 3.22834 29.7807 1.63939C30.7099 1.33749 31.6808 1.18372 32.6578 1.18372V10.494Z" fill="#F0C5C9" stroke="white"/>
<path d="M55.0013 10.494V1.18372C60.1433 1.18372 64.3117 5.35208 64.3117 10.494C64.3117 11.471 64.1579 12.4419 63.856 13.3711L55.0013 10.494Z" fill="#E69EA5" stroke="white"/>
<path d="M55.0013 10.494L63.8559 13.3711C62.267 18.2613 57.0145 20.9376 52.1243 19.3487C47.234 17.7597 44.5577 12.5073 46.1467 7.61698C47.3931 3.78092 50.9678 1.18372 55.0013 1.18372V10.494Z" fill="#F0C5C9" stroke="white"/>
<path d="M77.3462 10.494V1.18372C82.4881 1.18372 86.6565 5.35208 86.6565 10.494C86.6565 13.4743 85.2297 16.2745 82.8187 18.0262L77.3462 10.494Z" fill="#E69EA5" stroke="white"/>
<path d="M77.3458 10.494L82.8182 18.0262C78.6583 21.0486 72.8359 20.1264 69.8136 15.9665C66.7912 11.8066 67.7134 5.98418 71.8733 2.96183C73.4639 1.80616 75.3796 1.18372 77.3458 1.18372V10.494Z" fill="#F0C5C9" stroke="white"/>
<path d="M99.6897 10.494V1.18372C104.832 1.18372 109 5.35208 109 10.494C109 15.636 104.832 19.8043 99.6897 19.8043V10.494Z" fill="#E69EA5" stroke="white"/>
<path d="M99.6886 10.494V19.8043C94.5467 19.8043 90.3783 15.636 90.3783 10.494C90.3783 5.35208 94.5467 1.18372 99.6886 1.18372V10.494Z" fill="#F0C5C9" stroke="white"/>
</svg>
