<svg width="32" height="60" viewBox="0 0 32 60" fill="none" xmlns="http://www.w3.org/2000/svg">
<path d="M7.98419 18.4236L14.1394 18.9365L17.217 18.4236H22.3464L25.9369 19.4495L27.9886 22.5271L29.5274 26.1176V32.2728V37.9151L28.5016 42.0186L24.911 43.0445L24.3981 45.0962L22.3464 52.7902L20.8076 58.4325H9.523V55.8678L7.98419 49.1997L6.44539 44.0703L2.85485 41.5057L1.82898 34.3246V26.1176L4.90659 20.4753L7.98419 18.4236Z" fill="#EBB9BE"/>
<path d="M18.7558 14.8331L22.3464 9.19079L21.8334 4.57438L19.7817 2.52264L15.6782 2.0097L11.5747 2.52264L7.98419 7.13905L9.523 11.7555L12.6006 14.8331H18.7558Z" fill="#EBB9BE"/>
<path d="M7.98419 18.4236L14.1394 18.9365L17.217 18.4236H22.3464L25.9369 19.4495L27.9886 22.5271L29.5274 26.1176V32.2728V37.9151L28.5016 42.0186L24.911 43.0445L24.3981 45.0962L22.3464 52.7902L20.8076 58.4325H9.523V55.8678L7.98419 49.1997L6.44539 44.0703L2.85485 41.5057L1.82898 34.3246V26.1176L4.90659 20.4753L7.98419 18.4236Z" stroke="#EBB9BE"/>
<path d="M18.7558 14.8331L22.3464 9.19079L21.8334 4.57438L19.7817 2.52264L15.6782 2.0097L11.5747 2.52264L7.98419 7.13905L9.523 11.7555L12.6006 14.8331H18.7558Z" stroke="#EBB9BE"/>
<path d="M15.6781 17.0787C13.9892 17.0787 12.3381 16.5778 10.9338 15.6395C9.52952 14.7011 8.43501 13.3674 7.78872 11.807C7.14243 10.2465 6.97338 8.52951 7.30295 6.87302C7.63253 5.21652 8.44592 3.69496 9.64027 2.50075C10.8346 1.30655 12.3563 0.493336 14.0128 0.16396C15.6694 -0.165417 17.3864 0.00383719 18.9467 0.650316C20.507 1.2968 21.8406 2.39146 22.7788 3.79588C23.717 5.2003 24.2177 6.8514 24.2175 8.54036C24.215 10.8043 23.3145 12.9748 21.7136 14.5755C20.1127 16.1763 17.9421 17.0765 15.6781 17.0787ZM15.6781 3.07864C14.5979 3.07864 13.5419 3.39896 12.6438 3.9991C11.7456 4.59925 11.0455 5.45225 10.6322 6.45025C10.2188 7.44825 10.1106 8.54642 10.3214 9.60589C10.5321 10.6654 11.0523 11.6385 11.8161 12.4024C12.5799 13.1662 13.5531 13.6864 14.6126 13.8971C15.6721 14.1079 16.7702 13.9997 17.7682 13.5863C18.7662 13.173 19.6192 12.4729 20.2194 11.5747C20.8195 10.6766 21.1399 9.62059 21.1399 8.54036C21.1382 7.09232 20.5623 5.70406 19.5384 4.68014C18.5144 3.65622 17.1262 3.08027 15.6781 3.07864Z" fill="#EBB9BE"/>
<path d="M15.792 60H9.45726C9.08681 60 8.72879 59.8664 8.44894 59.6236C8.16909 59.3809 7.9862 59.0454 7.93384 58.6787L5.98469 45.0561C4.54314 45.0323 3.16578 44.4558 2.137 43.4458C1.10822 42.4357 0.506573 41.0691 0.456284 39.6283L0.0100298 27.8882C-0.0526851 26.4359 0.179207 24.986 0.691737 23.6257C1.20427 22.2653 1.98683 21.0229 2.99229 19.973C3.99775 18.9232 5.2053 18.0877 6.54222 17.5169C7.87913 16.9462 9.31774 16.6519 10.7714 16.6519H15.6781C16.0862 16.6519 16.4776 16.814 16.7662 17.1026C17.0548 17.3912 17.2169 17.7826 17.2169 18.1907C17.2169 18.5988 17.0548 18.9902 16.7662 19.2788C16.4776 19.5674 16.0862 19.7295 15.6781 19.7295H10.7734C9.73489 19.7296 8.7071 19.94 7.75202 20.348C6.79694 20.7559 5.93434 21.353 5.2162 22.1033C4.49806 22.8535 3.93924 23.7414 3.57342 24.7134C3.2076 25.6854 3.04236 26.7214 3.08764 27.759L3.53389 39.5082C3.55708 40.1721 3.83774 40.8009 4.31645 41.2614C4.79515 41.7219 5.43431 41.978 6.09856 41.9755H7.32345C7.69372 41.9757 8.05149 42.1094 8.33113 42.3521C8.61076 42.5948 8.79351 42.9302 8.84584 43.2968L10.795 56.9183H15.7961C16.2042 56.9183 16.5956 57.0804 16.8842 57.369C17.1728 57.6576 17.3349 58.049 17.3349 58.4571C17.3349 58.8652 17.1728 59.2566 16.8842 59.5452C16.5956 59.8337 16.2042 59.9959 15.7961 59.9959L15.792 60Z" fill="#EBB9BE"/>
<path d="M21.8989 60H15.5642C15.1561 60 14.7647 59.8379 14.4761 59.5493C14.1875 59.2607 14.0254 58.8693 14.0254 58.4612C14.0254 58.0531 14.1875 57.6617 14.4761 57.3731C14.7647 57.0845 15.1561 56.9224 15.5642 56.9224H20.5653L22.5145 43.3009C22.5668 42.9343 22.7495 42.5989 23.0292 42.3562C23.3088 42.1135 23.6666 41.9798 24.0368 41.9796H25.2597C25.9239 41.9821 26.5631 41.726 27.0418 41.2655C27.5205 40.805 27.8012 40.1762 27.8244 39.5123L28.2706 27.7713C28.3176 26.7327 28.1536 25.6954 27.7886 24.7219C27.4235 23.7485 26.865 22.8591 26.1467 22.1075C25.4283 21.3559 24.5652 20.7577 23.6092 20.349C22.6533 19.9403 21.6244 19.7295 20.5848 19.7295H15.6781C15.2699 19.7295 14.8785 19.5674 14.59 19.2788C14.3014 18.9902 14.1393 18.5988 14.1393 18.1907C14.1393 17.7826 14.3014 17.3912 14.59 17.1026C14.8785 16.814 15.2699 16.6519 15.6781 16.6519H20.5827C22.0371 16.6519 23.4764 16.9464 24.8139 17.5176C26.1514 18.0889 27.3593 18.9251 28.3649 19.9759C29.3705 21.0266 30.1529 22.2701 30.6649 23.6313C31.1769 24.9926 31.408 26.4435 31.3441 27.8964L30.8979 39.6283C30.8476 41.0691 30.2459 42.4357 29.2171 43.4458C28.1884 44.4558 26.811 45.0323 25.3694 45.0561L23.4203 58.6787C23.368 59.045 23.1854 59.3803 22.906 59.623C22.6265 59.8656 22.269 59.9995 21.8989 60Z" fill="#EBB9BE"/>
</svg>
