<svg width="108" height="26" viewBox="0 0 108 26" fill="none" xmlns="http://www.w3.org/2000/svg">
<rect y="21.2666" width="4.50942" height="4.50942" fill="#EBB9BE"/>
<rect x="13.9799" y="16.0811" width="4.50942" height="4.50942" fill="#EBB9BE"/>
<rect x="11.0488" y="21.2671" width="4.50942" height="4.50942" fill="#EBB9BE"/>
<rect x="16.9108" y="21.2673" width="4.50942" height="4.50942" fill="#EBB9BE"/>
<rect x="33.8188" y="10.8964" width="4.50942" height="4.50942" fill="#EBB9BE"/>
<rect x="30.8878" y="16.0824" width="4.50942" height="4.50942" fill="#EBB9BE"/>
<rect x="36.7498" y="16.0826" width="4.50942" height="4.50942" fill="#EBB9BE"/>
<rect x="33.8188" y="21.2673" width="4.50942" height="4.50942" fill="#EBB9BE"/>
<rect x="39.6808" y="21.2673" width="4.50942" height="4.50942" fill="#EBB9BE"/>
<rect x="27.9569" y="21.2673" width="4.50942" height="4.50942" fill="#EBB9BE"/>
<rect x="60.2021" y="5.70801" width="4.50942" height="4.50942" fill="#EBB9BE"/>
<rect x="57.2711" y="10.894" width="4.50942" height="4.50942" fill="#EBB9BE"/>
<rect x="63.1346" y="10.8942" width="4.50942" height="4.50942" fill="#EBB9BE"/>
<rect x="60.2021" y="16.0804" width="4.50942" height="4.50942" fill="#EBB9BE"/>
<rect x="66.0641" y="16.0804" width="4.50942" height="4.50942" fill="#EBB9BE"/>
<rect x="54.3402" y="16.0803" width="4.50942" height="4.50942" fill="#EBB9BE"/>
<rect x="57.2697" y="21.266" width="4.50942" height="4.50942" fill="#EBB9BE"/>
<rect x="63.1317" y="21.2659" width="4.50942" height="4.50942" fill="#EBB9BE"/>
<rect x="68.9951" y="21.266" width="4.50942" height="4.50942" fill="#EBB9BE"/>
<rect x="50.7312" y="21.2659" width="4.50942" height="4.50942" fill="#EBB9BE"/>
<rect x="91.7665" y="0.0723877" width="4.50942" height="4.50942" fill="#EBB9BE"/>
<rect x="88.8356" y="5.25842" width="4.50942" height="4.50942" fill="#EBB9BE"/>
<rect x="94.6976" y="5.25867" width="4.50942" height="4.50942" fill="#EBB9BE"/>
<rect x="91.7666" y="10.4441" width="4.50942" height="4.50942" fill="#EBB9BE"/>
<rect x="97.6285" y="10.4441" width="4.50942" height="4.50942" fill="#EBB9BE"/>
<rect x="85.9045" y="10.4441" width="4.50942" height="4.50942" fill="#EBB9BE"/>
<rect x="88.8356" y="15.6296" width="4.50942" height="4.50942" fill="#EBB9BE"/>
<rect x="94.6975" y="15.6296" width="4.50942" height="4.50942" fill="#EBB9BE"/>
<rect x="100.561" y="15.6296" width="4.50942" height="4.50942" fill="#EBB9BE"/>
<rect x="82.2971" y="15.6296" width="4.50942" height="4.50942" fill="#EBB9BE"/>
<rect x="85.9031" y="21.2666" width="4.50942" height="4.50942" fill="#EBB9BE"/>
<rect x="91.7651" y="21.2666" width="4.50942" height="4.50942" fill="#EBB9BE"/>
<rect x="97.6285" y="21.2666" width="4.50942" height="4.50942" fill="#EBB9BE"/>
<rect x="80.0411" y="21.2666" width="4.50942" height="4.50942" fill="#EBB9BE"/>
<rect x="103.491" y="21.2666" width="4.50942" height="4.50942" fill="#EBB9BE"/>
</svg>
